<svg width="634" height="118" viewBox="0 0 634 118" fill="none" xmlns="http://www.w3.org/2000/svg">
<g clip-path="url(#clip0_606_1169)">
<path d="M123.35 87.5999V15.8999H168.45V28.1999H136.85V45.4999H165.95V57.7999H136.85V87.5999H123.35Z" fill="white"/>
<path d="M196.15 88.9999C191.05 88.9999 186.55 87.9999 182.55 85.8999C178.55 83.8999 175.35 80.8999 173.05 76.9999C170.75 73.0999 169.55 68.3999 169.55 62.9999V61.3999C169.55 55.8999 170.75 51.2999 173.05 47.3999C175.35 43.4999 178.55 40.4999 182.55 38.4999C186.55 36.4999 191.15 35.3999 196.15 35.3999C201.25 35.3999 205.75 36.3999 209.75 38.4999C213.75 40.4999 216.95 43.4999 219.25 47.3999C221.55 51.2999 222.75 55.9999 222.75 61.3999V62.9999C222.75 68.4999 221.55 73.0999 219.25 76.9999C216.95 80.8999 213.75 83.8999 209.75 85.8999C205.65 87.9999 201.15 88.9999 196.15 88.9999ZM196.15 77.4999C200.15 77.4999 203.35 76.1999 205.95 73.6999C208.55 71.0999 209.85 67.4999 209.85 62.6999V61.6999C209.85 56.8999 208.55 53.1999 206.05 50.6999C203.45 48.0999 200.15 46.8999 196.15 46.8999C192.15 46.8999 188.95 48.1999 186.35 50.6999C183.75 53.2999 182.45 56.8999 182.45 61.6999V62.6999C182.45 67.4999 183.75 71.1999 186.35 73.6999C188.85 76.2999 192.15 77.4999 196.15 77.4999Z" fill="white"/>
<path d="M228.45 87.6001V36.8001H241.15V42.5001H242.95C243.75 40.5001 244.95 38.9001 246.65 38.0001C248.35 37.0001 250.45 36.6001 252.75 36.6001H258.85V48.1001H252.45C249.15 48.1001 246.45 49.0001 244.35 50.7001C242.25 52.4001 241.15 55.1001 241.15 58.7001V87.6001H228.45Z" fill="white"/>
<path d="M290.55 87.6C287.25 87.6 284.45 86.6 282.45 84.5C280.35 82.4 279.35 79.6 279.35 76.2V47.4H266.55V36.8H279.25V21H292.15V36.8H306.05V47.5H292.15V73.9C292.15 75.9 293.15 77 295.05 77H304.85V87.7H290.55V87.6Z" fill="white"/>
<path d="M341.15 88.9999C336.05 88.9999 331.65 87.8999 327.75 85.7999C323.85 83.5999 320.85 80.5999 318.75 76.6999C316.65 72.7999 315.55 68.0999 315.55 62.7999V61.5999C315.55 56.2999 316.65 51.5999 318.75 47.6999C320.85 43.7999 323.85 40.6999 327.65 38.5999C331.45 36.3999 335.95 35.3999 340.95 35.3999C345.95 35.3999 350.25 36.4999 353.95 38.6999C357.65 40.8999 360.55 43.9999 362.55 47.8999C364.55 51.7999 365.65 56.3999 365.65 61.5999V65.9999H328.65C328.75 69.4999 330.05 72.2999 332.55 74.4999C335.05 76.6999 338.05 77.7999 341.55 77.7999C345.15 77.7999 347.85 76.9999 349.55 75.3999C351.25 73.7999 352.55 72.0999 353.45 70.1999L364.05 75.6999C363.05 77.4999 361.75 79.3999 359.95 81.4999C358.15 83.5999 355.75 85.3999 352.75 86.7999C349.65 88.2999 345.85 88.9999 341.15 88.9999ZM328.75 56.2999H352.55C352.25 53.3999 351.05 50.9999 349.05 49.1999C346.95 47.3999 344.25 46.4999 340.95 46.4999C337.45 46.4999 334.75 47.3999 332.65 49.1999C330.55 50.9999 329.25 53.3999 328.75 56.2999Z" fill="white"/>
<path d="M377.15 87.6V36.8H389.85V43.5H391.65C392.45 41.7 394.05 40 396.25 38.4C398.45 36.8 401.95 36 406.45 36C410.45 36 413.85 36.9 416.85 38.7C419.85 40.5 422.15 43 423.75 46.2C425.35 49.4 426.25 53.1 426.25 57.3V87.6H413.35V58.3C413.35 54.5 412.45 51.6 410.55 49.7C408.65 47.8 405.95 46.8 402.55 46.8C398.55 46.8 395.55 48.1 393.35 50.7C391.15 53.3 390.05 57 390.05 61.7V87.5H377.15V87.6Z" fill="white"/>
<path d="M461.35 88.9999C454.75 88.9999 449.25 87.5999 445.05 84.6999C440.85 81.7999 438.25 77.6999 437.35 72.3999L449.25 69.2999C449.75 71.6999 450.55 73.5999 451.65 74.8999C452.75 76.2999 454.15 77.1999 455.85 77.7999C457.55 78.3999 459.35 78.6999 461.35 78.6999C464.35 78.6999 466.55 78.1999 468.05 77.0999C469.45 75.9999 470.25 74.6999 470.25 73.1999C470.25 71.6999 469.55 70.3999 468.25 69.5999C466.85 68.6999 464.65 67.9999 461.65 67.4999L458.75 66.9999C455.15 66.2999 451.95 65.3999 449.05 64.1999C446.15 62.9999 443.75 61.3999 441.95 59.1999C440.15 57.0999 439.25 54.3999 439.25 50.9999C439.25 45.8999 441.05 42.0999 444.75 39.3999C448.45 36.6999 453.25 35.3999 459.25 35.3999C464.95 35.3999 469.65 36.6999 473.35 39.1999C477.15 41.6999 479.55 44.9999 480.75 49.0999L468.75 52.7999C468.25 50.1999 467.05 48.3999 465.45 47.2999C463.75 46.1999 461.75 45.6999 459.25 45.6999C456.75 45.6999 454.95 46.0999 453.65 46.9999C452.35 47.8999 451.75 48.9999 451.75 50.4999C451.75 52.0999 452.45 53.3999 453.75 54.0999C455.15 54.8999 456.95 55.4999 459.25 55.8999L462.15 56.3999C465.95 57.0999 469.45 57.9999 472.55 59.0999C475.65 60.1999 478.15 61.7999 479.95 63.8999C481.75 65.9999 482.65 68.7999 482.65 72.3999C482.65 77.6999 480.75 81.7999 476.85 84.6999C473.05 87.5999 467.85 88.9999 461.35 88.9999Z" fill="white"/>
<path d="M507.25 88.9998C503.65 88.9998 500.35 88.3998 497.55 87.0998C494.65 85.7998 492.45 83.9998 490.75 81.5998C489.05 79.1998 488.25 76.1998 488.25 72.6998C488.25 69.1998 489.05 66.2998 490.75 63.8998C492.45 61.4998 494.75 59.7998 497.75 58.5998C500.75 57.3998 504.15 56.7998 507.95 56.7998H521.85V53.8998C521.85 51.4998 521.05 49.4998 519.55 47.9998C518.05 46.4998 515.65 45.6998 512.35 45.6998C509.15 45.6998 506.75 46.3998 505.15 47.8998C503.55 49.3998 502.55 51.2998 502.05 53.5998L490.15 49.5998C490.95 46.9998 492.25 44.5998 494.05 42.4998C495.85 40.2998 498.25 38.5998 501.35 37.2998C504.35 35.9998 508.05 35.2998 512.45 35.2998C519.15 35.2998 524.45 36.9998 528.35 40.2998C532.25 43.5998 534.15 48.4998 534.15 54.7998V73.7998C534.15 75.7998 535.15 76.8998 537.05 76.8998H541.15V87.5998H532.55C530.05 87.5998 527.95 86.9998 526.35 85.7998C524.75 84.5998 523.85 82.8998 523.85 80.8998V80.7998H521.95C521.65 81.5998 521.05 82.6998 520.15 83.9998C519.15 85.2998 517.65 86.4998 515.65 87.4998C513.55 88.4998 510.75 88.9998 507.25 88.9998ZM509.45 78.5998C513.05 78.5998 516.05 77.5998 518.35 75.5998C520.65 73.5998 521.75 70.8998 521.75 67.5998V66.5998H508.75C506.35 66.5998 504.45 67.0998 503.15 68.0998C501.75 69.0998 501.15 70.5998 501.15 72.3998C501.15 74.1998 501.85 75.6998 503.35 76.8998C504.65 77.9998 506.75 78.5998 509.45 78.5998Z" fill="white"/>
<path d="M543.35 87.5999L562.25 15.8999H585.85L604.55 87.5999H590.65L586.75 71.7999H561.15L557.25 87.5999H543.35ZM564.35 59.2999H583.55L574.85 24.3999H573.05L564.35 59.2999Z" fill="white"/>
<path d="M613.15 87.5999V15.8999H626.65V87.5999H613.15Z" fill="white"/>
<path d="M77.5294 39.0447H32.5142V7.30176H96V20.5741C96 30.7495 87.7048 39.0447 77.5294 39.0447ZM16.4768 70.4558C25.325 70.4558 32.4036 63.2666 32.4036 54.529V38.4917H16.4768C7.73921 38.4917 0.550049 45.6808 0.550049 54.529C0.550049 63.3772 7.73921 70.4558 16.4768 70.4558Z" fill="url(#paint0_linear_606_1169)"/>
<path d="M56.2937 77.4236H39.7033V45.9019H71.3356V62.4922C71.3356 70.6768 64.5889 77.4236 56.2937 77.4236ZM40.0351 93.6821V77.0918H24.3296C15.7026 77.0918 8.62402 84.0597 8.62402 92.7973V93.7927C8.62402 102.42 15.592 109.498 24.3296 109.498C32.9566 109.388 40.0351 102.42 40.0351 93.6821Z" fill="url(#paint1_linear_606_1169)"/>
</g>
<defs>
<linearGradient id="paint0_linear_606_1169" x1="-0.113565" y1="-5.39397" x2="76.6798" y2="58.193" gradientUnits="userSpaceOnUse">
<stop stop-color="#F6CB4F"/>
<stop offset="1" stop-color="#FCBE22"/>
</linearGradient>
<linearGradient id="paint1_linear_606_1169" x1="8.68928" y1="77.637" x2="71.299" y2="77.637" gradientUnits="userSpaceOnUse">
<stop stop-color="#F6CB4F"/>
<stop offset="1" stop-color="#FCBE22"/>
</linearGradient>
<clipPath id="clip0_606_1169">
<rect width="632.9" height="117" fill="white" transform="translate(0.550049 0.5)"/>
</clipPath>
</defs>
</svg>
