<svg width="232" height="44" viewBox="0 0 232 44" fill="none" xmlns="http://www.w3.org/2000/svg">
<g clip-path="url(#clip0_606_1304)">
<path d="M45.0144 32.4838V6.20099H61.5466V10.7098H49.9631V17.0514H60.6301V21.5601H49.9631V32.4838H45.0144Z" fill="#25292A"/>
<path d="M71.7004 32.997C69.8309 32.997 68.1813 32.6305 66.7151 31.8607C65.2488 31.1275 64.0758 30.0278 63.2327 28.5982C62.3896 27.1686 61.9497 25.4458 61.9497 23.4663V22.8798C61.9497 20.8637 62.3896 19.1775 63.2327 17.7479C64.0758 16.3182 65.2488 15.2185 66.7151 14.4854C68.1813 13.7523 69.8675 13.3491 71.7004 13.3491C73.5699 13.3491 75.2194 13.7156 76.6857 14.4854C78.1519 15.2185 79.325 16.3182 80.1681 17.7479C81.0112 19.1775 81.451 20.9003 81.451 22.8798V23.4663C81.451 25.4824 81.0112 27.1686 80.1681 28.5982C79.325 30.0278 78.1519 31.1275 76.6857 31.8607C75.1828 32.6305 73.5332 32.997 71.7004 32.997ZM71.7004 28.7815C73.1666 28.7815 74.3397 28.305 75.2927 27.3886C76.2458 26.4355 76.7223 25.1158 76.7223 23.3563V22.9898C76.7223 21.2302 76.2458 19.8739 75.3294 18.9575C74.3763 18.0045 73.1666 17.5646 71.7004 17.5646C70.2341 17.5646 69.0611 18.0411 68.108 18.9575C67.155 19.9106 66.6784 21.2302 66.6784 22.9898V23.3563C66.6784 25.1158 67.155 26.4721 68.108 27.3886C69.0244 28.3416 70.2341 28.7815 71.7004 28.7815Z" fill="#25292A"/>
<path d="M83.5405 32.4838V13.8623H88.1959V15.9517H88.8557C89.149 15.2186 89.5889 14.632 90.212 14.3021C90.8352 13.9356 91.605 13.7889 92.4481 13.7889H94.6841V18.0045H92.3381C91.1285 18.0045 90.1387 18.3344 89.3689 18.9575C88.5991 19.5807 88.1959 20.5704 88.1959 21.8901V32.4838H83.5405Z" fill="#25292A"/>
<path d="M106.304 32.4838C105.095 32.4838 104.068 32.1173 103.335 31.3475C102.565 30.5777 102.199 29.5513 102.199 28.305V17.7479H97.5068V13.8622H102.162V8.0705H106.891V13.8622H111.986V17.7845H106.891V27.4619C106.891 28.195 107.258 28.5982 107.954 28.5982H111.546V32.5205H106.304V32.4838Z" fill="#25292A"/>
<path d="M124.852 32.997C122.983 32.997 121.37 32.5938 119.94 31.824C118.511 31.0176 117.411 29.9179 116.641 28.4883C115.871 27.0586 115.468 25.3358 115.468 23.393V22.9531C115.468 21.0103 115.871 19.2874 116.641 17.8578C117.411 16.4282 118.511 15.2919 119.904 14.5221C121.297 13.7156 122.946 13.3491 124.779 13.3491C126.612 13.3491 128.188 13.7523 129.544 14.5587C130.901 15.3652 131.964 16.5015 132.697 17.9311C133.43 19.3608 133.833 21.047 133.833 22.9531V24.566H120.27C120.307 25.849 120.783 26.8754 121.7 27.6818C122.616 28.4883 123.716 28.8915 124.999 28.8915C126.319 28.8915 127.308 28.5982 127.932 28.0117C128.555 27.4252 129.031 26.8021 129.361 26.1056L133.247 28.1217C132.88 28.7815 132.404 29.478 131.744 30.2478C131.084 31.0176 130.204 31.6774 129.105 32.1906C127.968 32.7404 126.575 32.997 124.852 32.997ZM120.307 21.0103H129.031C128.921 19.9473 128.481 19.0675 127.748 18.4077C126.978 17.7479 125.989 17.4179 124.779 17.4179C123.496 17.4179 122.506 17.7479 121.737 18.4077C120.967 19.0675 120.49 19.9473 120.307 21.0103Z" fill="#25292A"/>
<path d="M138.049 32.4838V13.8622H142.704V16.3182H143.364C143.658 15.6584 144.244 15.0352 145.05 14.4487C145.857 13.8622 147.14 13.569 148.789 13.569C150.256 13.569 151.502 13.8989 152.602 14.5587C153.701 15.2185 154.545 16.1349 155.131 17.3079C155.718 18.481 156.047 19.8373 156.047 21.3768V32.4838H151.319V21.7434C151.319 20.3505 150.989 19.2874 150.292 18.5909C149.596 17.8945 148.606 17.5279 147.36 17.5279C145.894 17.5279 144.794 18.0044 143.987 18.9575C143.181 19.9106 142.778 21.2669 142.778 22.9897V32.4471H138.049V32.4838Z" fill="#25292A"/>
<path d="M168.914 32.997C166.494 32.997 164.478 32.4838 162.939 31.4208C161.399 30.3577 160.446 28.8548 160.116 26.912L164.478 25.7757C164.662 26.6554 164.955 27.3519 165.358 27.8284C165.761 28.3416 166.275 28.6715 166.898 28.8915C167.521 29.1114 168.181 29.2214 168.914 29.2214C170.014 29.2214 170.82 29.0381 171.37 28.6349C171.883 28.2317 172.176 27.7551 172.176 27.2053C172.176 26.6554 171.92 26.1789 171.443 25.8856C170.93 25.5557 170.123 25.2991 169.024 25.1158L167.961 24.9326C166.641 24.676 165.468 24.3461 164.405 23.9062C163.342 23.4663 162.462 22.8798 161.802 22.0733C161.143 21.3036 160.813 20.3138 160.813 19.0675C160.813 17.198 161.473 15.8051 162.829 14.8153C164.185 13.8256 165.945 13.3491 168.144 13.3491C170.233 13.3491 171.956 13.8256 173.313 14.742C174.706 15.6584 175.585 16.8681 176.025 18.371L171.626 19.7273C171.443 18.7742 171.003 18.1144 170.417 17.7112C169.794 17.308 169.06 17.1247 168.144 17.1247C167.228 17.1247 166.568 17.2713 166.091 17.6012C165.615 17.9311 165.395 18.3344 165.395 18.8842C165.395 19.4707 165.651 19.9473 166.128 20.2039C166.641 20.4971 167.301 20.717 168.144 20.8637L169.207 21.047C170.6 21.3036 171.883 21.6335 173.019 22.0367C174.156 22.4399 175.072 23.0264 175.732 23.7962C176.392 24.566 176.722 25.5924 176.722 26.912C176.722 28.8548 176.025 30.3577 174.596 31.4208C173.203 32.4838 171.296 32.997 168.914 32.997Z" fill="#25292A"/>
<path d="M185.739 32.997C184.42 32.997 183.21 32.7771 182.183 32.3005C181.12 31.824 180.314 31.1642 179.691 30.2844C179.068 29.4046 178.774 28.3049 178.774 27.022C178.774 25.739 179.068 24.6759 179.691 23.7962C180.314 22.9164 181.157 22.2933 182.257 21.8534C183.356 21.4135 184.603 21.1936 185.996 21.1936H191.091V20.1305C191.091 19.2508 190.798 18.5176 190.248 17.9678C189.698 17.4179 188.818 17.1247 187.609 17.1247C186.436 17.1247 185.556 17.3813 184.969 17.9311C184.383 18.481 184.016 19.1774 183.833 20.0205L179.471 18.5543C179.764 17.6012 180.241 16.7214 180.9 15.9517C181.56 15.1452 182.44 14.522 183.576 14.0455C184.676 13.569 186.032 13.3124 187.645 13.3124C190.101 13.3124 192.044 13.9355 193.474 15.1452C194.903 16.3549 195.6 18.1511 195.6 20.4604V27.4252C195.6 28.1583 195.966 28.5615 196.663 28.5615H198.166V32.4838H195.013C194.097 32.4838 193.327 32.2639 192.741 31.824C192.154 31.3841 191.824 30.7609 191.824 30.0278V29.9912H191.128C191.018 30.2844 190.798 30.6876 190.468 31.1642C190.101 31.6407 189.551 32.0806 188.818 32.4472C188.049 32.8137 187.022 32.997 185.739 32.997ZM186.546 29.1847C187.865 29.1847 188.965 28.8181 189.808 28.085C190.651 27.3519 191.054 26.3621 191.054 25.1525V24.7859H186.289C185.409 24.7859 184.713 24.9692 184.236 25.3358C183.723 25.7023 183.503 26.2522 183.503 26.912C183.503 27.5718 183.76 28.1217 184.31 28.5615C184.786 28.9648 185.556 29.1847 186.546 29.1847Z" fill="#25292A"/>
<path d="M198.972 32.4838L205.901 6.20099H214.551L221.406 32.4838H216.311L214.881 26.6921H205.497L204.068 32.4838H198.972ZM206.67 22.11H213.708L210.519 9.3168H209.859L206.67 22.11Z" fill="#25292A"/>
<path d="M224.559 32.4838V6.20099H229.507V32.4838H224.559Z" fill="#25292A"/>
<path d="M28.218 14.685H11.717V3.04913H34.9888V7.91431C34.9888 11.6443 31.948 14.685 28.218 14.685ZM5.83822 26.1993C9.08167 26.1993 11.6764 23.564 11.6764 20.3611V14.4823H5.83822C2.63531 14.4823 0 17.1176 0 20.3611C0 23.6045 2.63531 26.1993 5.83822 26.1993Z" fill="url(#paint0_linear_606_1304)"/>
<path d="M20.4336 28.7535H14.3521V17.1987H25.9475V23.2801C25.9475 26.2803 23.4743 28.7535 20.4336 28.7535ZM14.4737 34.7133V28.6318H8.7166C5.55424 28.6318 2.95947 31.1861 2.95947 34.389V34.7539C2.95947 37.9162 5.51369 40.511 8.7166 40.511C11.879 40.4705 14.4737 37.9162 14.4737 34.7133Z" fill="url(#paint1_linear_606_1304)"/>
</g>
<defs>
<linearGradient id="paint0_linear_606_1304" x1="-0.243259" y1="-1.6047" x2="27.9066" y2="21.7041" gradientUnits="userSpaceOnUse">
<stop stop-color="#F6CB4F"/>
<stop offset="1" stop-color="#FCBE22"/>
</linearGradient>
<linearGradient id="paint1_linear_606_1304" x1="2.98339" y1="28.8317" x2="25.934" y2="28.8317" gradientUnits="userSpaceOnUse">
<stop stop-color="#F6CB4F"/>
<stop offset="1" stop-color="#FCBE22"/>
</linearGradient>
<clipPath id="clip0_606_1304">
<rect width="232" height="42.8883" fill="white" transform="translate(0 0.555847)"/>
</clipPath>
</defs>
</svg>
